<?xml version="1.0" encoding="UTF-8" standalone="no"?>
<svg width="112px" height="127px" viewBox="0 0 112 127" version="1.1" xmlns="http://www.w3.org/2000/svg" xmlns:xlink="http://www.w3.org/1999/xlink" xmlns:sketch="http://www.bohemiancoding.com/sketch/ns">
    <!-- Generator: Sketch 3.2.2 (9983) - http://www.bohemiancoding.com/sketch -->
    <title>LOGO</title>
    <desc>Created with Sketch.</desc>
    <defs></defs>
    <g id="页1" stroke="none" stroke-width="1" fill="none" fill-rule="evenodd" sketch:type="MSPage">
        <g id="FIUI首页" sketch:type="MSArtboardGroup" transform="translate(-894.000000, -504.000000)">
            <g id="LOGO" sketch:type="MSLayerGroup" transform="translate(894.000000, 504.000000)">
                <path d="M59.7054085,1.01406844 C57.3532796,-0.338022814 54.6467204,-0.338022814 52.2945915,1.01406844 L3.70540852,29.0538657 C1.35327963,30.4059569 0,32.7238276 0,35.4602028 L0,91.5397972 C0,94.2761724 1.35327963,96.5940431 3.70540852,97.9461343 L52.2945915,125.985932 C54.6467204,127.338023 57.3532796,127.338023 59.7054085,125.985932 L108.294591,97.9461343 C110.64672,96.5940431 112,94.2761724 112,91.5397972 L112,35.4602028 C111.967779,32.7560203 110.64672,30.4381496 108.294591,29.0538657 L59.7054085,1.01406844 Z" id="图形" fill="#03A9F4" sketch:type="MSShapeGroup"></path>
                <path d="M23,47.4686431 C31.7801724,39.6795895 43.2155172,35 55.7672414,35 C61.4698276,35 66.9310345,35.9851767 72,37.7400228 L62.5862069,52.7023945 C60.3836207,52.2405929 58.0905172,51.9942987 55.7672414,51.9942987 C46.5344828,51.9942987 38.1767241,55.8118586 32.1422414,62 L23,47.4686431 Z M35,66.1086142 C40.2171291,60.505618 47.6658625,57 55.9589867,57 C57.3160434,57 58.6731001,57.0898876 60,57.2696629 L44.6501809,81 L35,66.1086142 Z M62.1821618,89.6893983 C60.9123205,91.6636103 58.6749811,93 56.1655329,93 C52.2048375,93 49,89.7805158 49,85.8017192 C49,84.374212 49.4232804,83.0378223 50.148904,81.9140401 L76.9667423,40 C78.9017385,40.8808023 80.7762661,41.913467 82.590325,43.0372493 L83.829932,43.8573066 C85.6439909,45.0722063 87.3673469,46.3782235 89,47.8057307 L62.1821618,89.6893983 Z" id="Path" fill="#FFFFFF" sketch:type="MSShapeGroup"></path>
            </g>
        </g>
    </g>
</svg>