<?xml version="1.0" encoding="UTF-8" standalone="no"?>
<svg width="98px" height="20px" viewBox="0 0 98 20" version="1.1" xmlns="http://www.w3.org/2000/svg" xmlns:xlink="http://www.w3.org/1999/xlink" xmlns:sketch="http://www.bohemiancoding.com/sketch/ns">
    <!-- Generator: Sketch 3.2.2 (9983) - http://www.bohemiancoding.com/sketch -->
    <title>FIUI</title>
    <desc>Created with Sketch.</desc>
    <defs></defs>
    <g id="页1" stroke="none" stroke-width="1" fill="none" fill-rule="evenodd" sketch:type="MSPage">
        <g id="Artboard-5" sketch:type="MSArtboardGroup" transform="translate(-90.000000, -22.000000)" fill="#FFFFFF">
            <g id="Title" sketch:type="MSLayerGroup">
                <g id="FIUI-+-FIUI_LOGO" transform="translate(90.000000, 22.000000)" sketch:type="MSShapeGroup">
                    <path d="M56,20 L60.0675513,20 L60.6320869,14.6397274 L66.3208685,14.6397274 L66.6248492,11.7624148 L60.9360676,11.7624148 L61.3413752,7.90652386 L67.6960193,7.90652386 L68,5 L57.5778046,5 L56,20 L56,20 Z M69.6419437,5.47187798 L68,20 L72.3120205,20 L74,5 L73.6470588,5.042898 L69.6419437,5.47187798 L69.6419437,5.47187798 Z M85.032932,15.0374883 C84.8798851,16.4995314 84.3094375,17.3851921 82.2502609,17.3851921 C80.218911,17.3851921 79.7875969,16.4995314 79.9406439,15.0374883 L80.9841455,5 L77.0188392,5.49203374 L76.0449043,14.8828491 C75.6275036,18.8331771 78.1597343,20 81.9859071,20 C85.7981666,20 88.553011,18.8331771 88.9704117,14.8828491 L90,5.01405811 L86.0346936,5.49203374 L85.032932,15.0374883 L85.032932,15.0374883 Z M97.6624041,5 L93.6419437,5.44455067 L92,20 L96.3120205,20 L98,5 L97.6624041,5 Z M18.7890122,2 L9.40081684,16.239422 C8.6509149,17.3768906 8.9826023,18.8794726 10.1507188,19.6096994 C11.3188352,20.3399262 12.8619027,20.0169412 13.6118046,18.8794726 L23,4.64005063 C22.3798888,4.10642337 21.7020928,3.62896741 20.9810333,3.17959709 C20.2743949,2.73022677 19.5389141,2.33702774 18.7890122,2 Z M13.1830986,4.81879195 L16,0.644295302 C14.4929577,0.228187919 12.8873239,0 11.2394366,0 C8.73239437,0 6.36619718,0.510067114 4.21126761,1.43624161 C4.18309859,1.44966443 4.15492958,1.46308725 4.12676056,1.47651007 C3.64788732,1.70469799 3.23943662,1.90604027 2.88732394,2.08053691 C2.6056338,2.22818792 2.32394366,2.38926174 2.04225352,2.56375839 C2.02816901,2.57718121 2.01408451,2.59060403 1.97183099,2.60402685 C1.28169014,3.03355705 0.61971831,3.48993289 0.014084507,4 L0,4.01342282 L2.69014085,8 C4.90140845,5.94630872 7.91549296,4.68456376 11.2394366,4.68456376 C11.9014085,4.67114094 12.5492958,4.72483221 13.1830986,4.81879195 L13.1830986,4.81879195 Z M11.5276753,7 C8.54612546,7 5.87453875,8.28598131 4,10.3345794 L6.95202952,15 L7.17343173,14.6411215 C7.17343173,14.6261682 7.18819188,14.6261682 7.18819188,14.611215 L12,7.01495327 C11.8523985,7 11.6900369,7 11.5276753,7 L11.5276753,7 Z" id="FIUI"></path>
                </g>
            </g>
        </g>
    </g>
</svg>